<svg xmlns="http://www.w3.org/2000/svg" xmlns:xlink="http://www.w3.org/1999/xlink" version="1.1" x="0px" y="0px" viewBox="0 0 80 80" enable-background="new 0 0 80 80" xml:space="preserve">
<g id="Layer_1">
</g>
<g id="Layer_2">
</g>
<g id="Layer_3">
</g>
<g id="Layer_4">
	<g>
		<path fill="#FAC25A" d="M22.858,28.548l11.965,4.127c0.108,0.037,0.218,0.055,0.326,0.055c0.415,0,0.803-0.26,0.945-0.674    c0.18-0.522-0.097-1.092-0.619-1.271L23.51,26.657c-0.523-0.184-1.092,0.097-1.271,0.619    C22.059,27.799,22.336,28.368,22.858,28.548z"/>
		<path fill="#FAC25A" d="M22.807,38.337l11.965,4.127c0.108,0.037,0.218,0.055,0.326,0.055c0.415,0,0.803-0.26,0.945-0.674    c0.18-0.522-0.097-1.092-0.619-1.271l-11.965-4.127c-0.525-0.181-1.092,0.097-1.271,0.619    C22.008,37.588,22.285,38.157,22.807,38.337z"/>
		<path fill="#FAC25A" d="M32.25,48.554l-8.799-2.938c-0.524-0.174-1.09,0.107-1.266,0.632c-0.175,0.523,0.108,1.09,0.632,1.265    l8.799,2.938c0.105,0.035,0.212,0.052,0.317,0.052c0.418,0,0.809-0.265,0.949-0.684C33.056,49.296,32.773,48.729,32.25,48.554z"/>
		<path fill="#FAC25A" d="M62.37,17.275c-0.25-0.189-0.575-0.248-0.876-0.164l-21.143,6.013c-0.027-0.01-0.049-0.028-0.077-0.036    l-21.768-6.19c-0.3-0.087-0.626-0.024-0.876,0.164c-0.25,0.188-0.397,0.484-0.397,0.798v37.878c0,0.447,0.296,0.84,0.727,0.962    l21.282,6.052c0.051,0.064,0.089,0.137,0.156,0.188c0.175,0.133,0.388,0.202,0.603,0.202c0.091,0,0.184-0.013,0.273-0.038    l21.768-6.19c0.43-0.122,0.727-0.515,0.727-0.962V18.073C62.768,17.76,62.621,17.464,62.37,17.275z M39,60.603l-19.768-5.621    V19.183L39,24.804V60.603z M60.768,55.196L41,60.817V25.018l19.768-5.621V55.196z"/>
		<path fill="#FAC25A" d="M44.323,40.271c0.171,0.121,0.374,0.184,0.578,0.184c0.11,0,0.22-0.018,0.326-0.055l11.965-4.127    c0.406-0.14,0.677-0.523,0.674-0.952l-0.051-7.512c-0.002-0.322-0.159-0.623-0.422-0.81s-0.599-0.235-0.904-0.129l-11.965,4.127    c-0.406,0.14-0.677,0.523-0.674,0.952l0.051,7.512C43.903,39.784,44.06,40.085,44.323,40.271z M55.825,29.216l0.037,5.401    l-9.97,3.438l-0.037-5.401L55.825,29.216z"/>
		<path fill="#FAC25A" d="M56.54,41.818l-11.965,4.127c-0.522,0.18-0.799,0.749-0.619,1.271c0.143,0.414,0.53,0.674,0.945,0.674    c0.108,0,0.218-0.018,0.326-0.055l11.965-4.127c0.522-0.18,0.799-0.749,0.619-1.271C57.632,41.915,57.062,41.637,56.54,41.818z"/>
	</g>
</g>
</svg>