<?xml version="1.0" encoding="utf-8"?>
<!-- Generator: Adobe Illustrator 25.0.1, SVG Export Plug-In . SVG Version: 6.00 Build 0)  -->
<svg version="1.1" xmlns="http://www.w3.org/2000/svg" xmlns:xlink="http://www.w3.org/1999/xlink" x="0px" y="0px"
	 viewBox="0 0 80 80" enable-background="new 0 0 80 80" xml:space="preserve">
<g id="Layer_1">
</g>
<g id="Layer_2">
</g>
<g id="Layer_3">
</g>
<g id="Layer_4">
	<g>
		<path fill="#FAC25A" d="M60.732,62.061h-1.329V20.332c0-0.441-0.357-0.798-0.797-0.798H43.721c-0.44,0-0.797,0.357-0.797,0.798
			v3.455h-1.595v-3.455c0-0.441-0.357-0.798-0.797-0.798h-3.455v-2.392c0-0.44-0.357-0.798-0.797-0.798
			c-0.44,0-0.797,0.357-0.797,0.798v2.392h-3.455c-0.44,0-0.797,0.357-0.797,0.798v3.455h-2.392c-0.44,0-0.797,0.357-0.797,0.798
			v6.645h-6.645c-0.44,0-0.797,0.357-0.797,0.798v30.034h-1.329c-0.44,0-0.797,0.357-0.797,0.797s0.357,0.797,0.797,0.797h7.442
			h4.253h5.316h14.884h9.569c0.44,0,0.797-0.357,0.797-0.797S61.172,62.061,60.732,62.061z M32.824,21.129h6.911v2.658h-6.911
			V21.129z M30.166,62.061h-2.658v-2.658h2.658V62.061z M35.482,62.061H31.76v-3.455c0-0.441-0.357-0.798-0.797-0.798h-4.253
			c-0.44,0-0.797,0.357-0.797,0.798v3.455h-3.721V32.824h13.289V62.061z M36.279,31.229h-6.645v-5.847h2.392h8.505h2.392v15.416
			h-5.847v-2.658h2.392c0.44,0,0.797-0.357,0.797-0.797s-0.357-0.797-0.797-0.797h-2.392v-2.658h2.392
			c0.44,0,0.797-0.357,0.797-0.797s-0.357-0.797-0.797-0.797h-2.392v-0.266C37.076,31.586,36.719,31.229,36.279,31.229z
			 M50.366,62.061H37.076V42.392h13.289V62.061z M57.808,62.061h-5.847V41.595v-1.063c0-0.441-0.357-0.798-0.797-0.798
			s-0.797,0.357-0.797,0.798v0.266h-1.595v-0.266c0-0.441-0.357-0.798-0.797-0.798c-0.44,0-0.797,0.357-0.797,0.798v0.266h-2.658
			V24.584v-3.455h13.289V62.061z"/>
		<path fill="#FAC25A" d="M40.532,60.466c0.44,0,0.797-0.357,0.797-0.797V44.785c0-0.44-0.357-0.798-0.797-0.798
			c-0.44,0-0.797,0.357-0.797,0.798v14.884C39.734,60.109,40.091,60.466,40.532,60.466z"/>
		<path fill="#FAC25A" d="M43.721,60.466c0.44,0,0.797-0.357,0.797-0.797V44.785c0-0.44-0.357-0.798-0.797-0.798
			c-0.44,0-0.797,0.357-0.797,0.798v14.884C42.924,60.109,43.281,60.466,43.721,60.466z"/>
		<path fill="#FAC25A" d="M46.911,60.466c0.44,0,0.797-0.357,0.797-0.797V44.785c0-0.44-0.357-0.798-0.797-0.798
			s-0.797,0.357-0.797,0.798v14.884C46.113,60.109,46.47,60.466,46.911,60.466z"/>
		<path fill="#FAC25A" d="M47.974,26.445c0.44,0,0.797-0.357,0.797-0.797v-1.063c0-0.44-0.357-0.797-0.797-0.797
			c-0.44,0-0.797,0.357-0.797,0.797v1.063C47.176,26.088,47.533,26.445,47.974,26.445z"/>
		<path fill="#FAC25A" d="M51.163,26.445c0.44,0,0.797-0.357,0.797-0.797v-1.063c0-0.44-0.357-0.797-0.797-0.797
			s-0.797,0.357-0.797,0.797v1.063C50.366,26.088,50.723,26.445,51.163,26.445z"/>
		<path fill="#FAC25A" d="M54.353,26.445c0.44,0,0.797-0.357,0.797-0.797v-1.063c0-0.44-0.357-0.797-0.797-0.797
			c-0.44,0-0.797,0.357-0.797,0.797v1.063C53.555,26.088,53.912,26.445,54.353,26.445z"/>
		<path fill="#FAC25A" d="M47.974,31.761c0.44,0,0.797-0.357,0.797-0.798V29.9c0-0.44-0.357-0.797-0.797-0.797
			c-0.44,0-0.797,0.357-0.797,0.797v1.063C47.176,31.404,47.533,31.761,47.974,31.761z"/>
		<path fill="#FAC25A" d="M51.163,31.761c0.44,0,0.797-0.357,0.797-0.798V29.9c0-0.44-0.357-0.797-0.797-0.797
			s-0.797,0.357-0.797,0.797v1.063C50.366,31.404,50.723,31.761,51.163,31.761z"/>
		<path fill="#FAC25A" d="M54.353,31.761c0.44,0,0.797-0.357,0.797-0.798V29.9c0-0.44-0.357-0.797-0.797-0.797
			c-0.44,0-0.797,0.357-0.797,0.797v1.063C53.555,31.404,53.912,31.761,54.353,31.761z"/>
		<path fill="#FAC25A" d="M47.974,37.076c0.44,0,0.797-0.357,0.797-0.797v-1.063c0-0.44-0.357-0.798-0.797-0.798
			c-0.44,0-0.797,0.357-0.797,0.798v1.063C47.176,36.72,47.533,37.076,47.974,37.076z"/>
		<path fill="#FAC25A" d="M51.163,37.076c0.44,0,0.797-0.357,0.797-0.797v-1.063c0-0.44-0.357-0.798-0.797-0.798
			s-0.797,0.357-0.797,0.798v1.063C50.366,36.72,50.723,37.076,51.163,37.076z"/>
		<path fill="#FAC25A" d="M54.353,37.076c0.44,0,0.797-0.357,0.797-0.797v-1.063c0-0.44-0.357-0.798-0.797-0.798
			c-0.44,0-0.797,0.357-0.797,0.798v1.063C53.555,36.72,53.912,37.076,54.353,37.076z"/>
		<path fill="#FAC25A" d="M25.647,39.203c0.44,0,0.797-0.357,0.797-0.797v-1.063c0-0.44-0.357-0.797-0.797-0.797
			c-0.44,0-0.797,0.357-0.797,0.797v1.063C24.85,38.846,25.207,39.203,25.647,39.203z"/>
		<path fill="#FAC25A" d="M28.837,39.203c0.44,0,0.797-0.357,0.797-0.797v-1.063c0-0.44-0.357-0.797-0.797-0.797
			c-0.44,0-0.797,0.357-0.797,0.797v1.063C28.04,38.846,28.396,39.203,28.837,39.203z"/>
		<path fill="#FAC25A" d="M32.026,39.203c0.44,0,0.797-0.357,0.797-0.797v-1.063c0-0.44-0.357-0.797-0.797-0.797
			c-0.44,0-0.797,0.357-0.797,0.797v1.063C31.229,38.846,31.586,39.203,32.026,39.203z"/>
		<path fill="#FAC25A" d="M25.647,44.519c0.44,0,0.797-0.357,0.797-0.797v-1.063c0-0.44-0.357-0.798-0.797-0.798
			c-0.44,0-0.797,0.357-0.797,0.798v1.063C24.85,44.162,25.207,44.519,25.647,44.519z"/>
		<path fill="#FAC25A" d="M28.837,44.519c0.44,0,0.797-0.357,0.797-0.797v-1.063c0-0.44-0.357-0.798-0.797-0.798
			c-0.44,0-0.797,0.357-0.797,0.798v1.063C28.04,44.162,28.396,44.519,28.837,44.519z"/>
		<path fill="#FAC25A" d="M32.026,44.519c0.44,0,0.797-0.357,0.797-0.797v-1.063c0-0.44-0.357-0.798-0.797-0.798
			c-0.44,0-0.797,0.357-0.797,0.798v1.063C31.229,44.162,31.586,44.519,32.026,44.519z"/>
		<path fill="#FAC25A" d="M25.647,49.834c0.44,0,0.797-0.357,0.797-0.798v-1.063c0-0.44-0.357-0.797-0.797-0.797
			c-0.44,0-0.797,0.357-0.797,0.797v1.063C24.85,49.478,25.207,49.834,25.647,49.834z"/>
		<path fill="#FAC25A" d="M28.837,49.834c0.44,0,0.797-0.357,0.797-0.798v-1.063c0-0.44-0.357-0.797-0.797-0.797
			c-0.44,0-0.797,0.357-0.797,0.797v1.063C28.04,49.478,28.396,49.834,28.837,49.834z"/>
		<path fill="#FAC25A" d="M32.026,49.834c0.44,0,0.797-0.357,0.797-0.798v-1.063c0-0.44-0.357-0.797-0.797-0.797
			c-0.44,0-0.797,0.357-0.797,0.797v1.063C31.229,49.478,31.586,49.834,32.026,49.834z"/>
		<path fill="#FAC25A" d="M25.647,55.15c0.44,0,0.797-0.357,0.797-0.797V53.29c0-0.441-0.357-0.798-0.797-0.798
			c-0.44,0-0.797,0.357-0.797,0.798v1.063C24.85,54.793,25.207,55.15,25.647,55.15z"/>
		<path fill="#FAC25A" d="M28.837,55.15c0.44,0,0.797-0.357,0.797-0.797V53.29c0-0.441-0.357-0.798-0.797-0.798
			c-0.44,0-0.797,0.357-0.797,0.798v1.063C28.04,54.793,28.396,55.15,28.837,55.15z"/>
		<path fill="#FAC25A" d="M32.026,55.15c0.44,0,0.797-0.357,0.797-0.797V53.29c0-0.441-0.357-0.798-0.797-0.798
			c-0.44,0-0.797,0.357-0.797,0.798v1.063C31.229,54.793,31.586,55.15,32.026,55.15z"/>
		<path fill="#FAC25A" d="M54.353,42.392c0.44,0,0.797-0.357,0.797-0.798v-1.063c0-0.44-0.357-0.797-0.797-0.797
			c-0.44,0-0.797,0.357-0.797,0.797v1.063C53.555,42.035,53.912,42.392,54.353,42.392z"/>
		<path fill="#FAC25A" d="M54.353,47.708c0.44,0,0.797-0.357,0.797-0.797v-1.063c0-0.441-0.357-0.798-0.797-0.798
			c-0.44,0-0.797,0.357-0.797,0.798v1.063C53.555,47.351,53.912,47.708,54.353,47.708z"/>
		<path fill="#FAC25A" d="M54.353,53.024c0.44,0,0.797-0.357,0.797-0.798v-1.063c0-0.441-0.357-0.798-0.797-0.798
			c-0.44,0-0.797,0.357-0.797,0.798v1.063C53.555,52.667,53.912,53.024,54.353,53.024z"/>
		<path fill="#FAC25A" d="M54.353,58.34c0.44,0,0.797-0.357,0.797-0.798v-1.063c0-0.44-0.357-0.797-0.797-0.797
			c-0.44,0-0.797,0.357-0.797,0.797v1.063C53.555,57.983,53.912,58.34,54.353,58.34z"/>
		<path fill="#FAC25A" d="M40.266,28.837c0-0.441-0.357-0.798-0.797-0.798h-6.379c-0.44,0-0.797,0.357-0.797,0.798
			c0,0.44,0.357,0.797,0.797,0.797h6.379C39.909,29.634,40.266,29.278,40.266,28.837z"/>
	</g>
</g>
</svg>
