<svg xmlns="http://www.w3.org/2000/svg" xmlns:xlink="http://www.w3.org/1999/xlink" version="1.1" id="Layer_1" x="0px" y="0px" viewBox="0 0 80 80" style="enable-background:new 0 0 80 80;" xml:space="preserve">
<style type="text/css">
	.st0{fill:#FAC25A;}
</style>
<g id="Layer_1_1_">
</g>
<g id="Layer_2_1_">
</g>
<g id="Layer_3">
</g>
<g id="Layer_4">
	<g>
		<path class="st0" d="M25.4,55.4h36.5c0.6,0,1-0.4,1-1V17.9c0-0.6-0.4-1-1-1H25.4c-0.6,0-1,0.4-1,1v36.5    C24.4,54.9,24.9,55.4,25.4,55.4z M26.4,43.4h7c-0.2,1.6-1.1,3.5-2.5,4.9c-1.3,1.3-2.9,2-4.5,2V43.4z M38.1,18.9v4.2h-0.4    c-0.6,0-1,0.4-1,1s0.4,1,1,1h2.9c0.6,0,1-0.4,1-1s-0.4-1-1-1h-0.4v-4.2h6.6v8.3c0,0.6,0.4,1,1,1h2.8v0.4c0,0.6,0.4,1,1,1    s1-0.4,1-1v-2.9c0-0.6-0.4-1-1-1s-1,0.4-1,1v0.4h-1.8v-7.3h12.3v7.3h-2.4v-0.4c0-0.6-0.4-1-1-1s-1,0.4-1,1v2.9c0,0.6,0.4,1,1,1    s1-0.4,1-1v-0.4h2.4v11.8H57v-0.4c0-0.6-0.4-1-1-1s-1,0.4-1,1v2.9c0,0.6,0.4,1,1,1s1-0.4,1-1v-0.4h3.9v11.5H44.7V41.9h4.1v0.4    c0,0.6,0.4,1,1,1s1-0.4,1-1v-2.9c0-0.6-0.4-1-1-1s-1,0.4-1,1v0.4h-5.1c-0.6,0-1,0.4-1,1v12.5H26.4v-1c0,0,0.1,0,0.1,0    c2.1,0,4.1-0.9,5.8-2.6c2.1-2.1,3.3-5,3.1-7.4c0-0.5-0.5-0.9-1-0.9h-8v-4.6h12.8c0.6,0,1-0.4,1-1v-4.6h0.4c0.6,0,1-0.4,1-1    s-0.4-1-1-1h-2.9c-0.6,0-1,0.4-1,1s0.4,1,1,1h0.4v3.6H26.4v-16H38.1z"/>
		<path class="st0" d="M22.8,53.8c-0.4-0.4-1-0.4-1.4,0L21,54.2V20.5l0.4,0.4c0.2,0.2,0.5,0.3,0.7,0.3c0.3,0,0.5-0.1,0.7-0.3    c0.4-0.4,0.4-1,0-1.4l-2.1-2.1c-0.4-0.4-1-0.4-1.4,0l-2.1,2.1c-0.4,0.4-0.4,1,0,1.4c0.4,0.4,1,0.4,1.4,0l0.4-0.4v33.7l-0.4-0.4    c-0.4-0.4-1-0.4-1.4,0c-0.4,0.4-0.4,1,0,1.4l2.1,2.1c0.2,0.2,0.4,0.3,0.7,0.3c0.3,0,0.5-0.1,0.7-0.3l2.1-2.1    C23.2,54.8,23.2,54.2,22.8,53.8z"/>
		<path class="st0" d="M62.8,59.3l-2.1-2.1c-0.4-0.4-1-0.4-1.4,0c-0.4,0.4-0.4,1,0,1.4l0.4,0.4H26l0.4-0.4c0.4-0.4,0.4-1,0-1.4    s-1-0.4-1.4,0l-2.1,2.1c-0.2,0.2-0.3,0.4-0.3,0.7c0,0.3,0.1,0.5,0.3,0.7l2.1,2.1c0.2,0.2,0.5,0.3,0.7,0.3c0.3,0,0.5-0.1,0.7-0.3    c0.4-0.4,0.4-1,0-1.4L26,61h33.7l-0.4,0.4c-0.4,0.4-0.4,1,0,1.4c0.2,0.2,0.5,0.3,0.7,0.3s0.5-0.1,0.7-0.3l2.1-2.1    c0.2-0.2,0.3-0.4,0.3-0.7C63.1,59.7,63,59.5,62.8,59.3z"/>
	</g>
</g>
</svg>