<svg xmlns="http://www.w3.org/2000/svg" xmlns:xlink="http://www.w3.org/1999/xlink" version="1.1" x="0px" y="0px" viewBox="0 0 80 80" enable-background="new 0 0 80 80" xml:space="preserve">
<g id="Layer_1">
</g>
<g id="Layer_2">
</g>
<g id="Layer_3">
</g>
<g id="Layer_4">
	<g>
		<path fill="#FAC25A" d="M61.21,20.065c-0.053-0.074-0.115-0.141-0.185-0.199c-2.145-2.281-4.81-4.068-7.805-5.166    c-0.054-0.024-0.11-0.044-0.167-0.059c-2.123-0.757-4.408-1.17-6.788-1.17c-2.655,0-5.192,0.514-7.517,1.446    c-0.063,0.019-0.124,0.044-0.183,0.075c-2.859,1.179-5.392,2.994-7.421,5.268c-0.066,0.059-0.125,0.125-0.175,0.198    c-3.093,3.559-4.968,8.203-4.968,13.277c0,0.761,0.044,1.512,0.126,2.251c0.001,0.009,0.002,0.018,0.003,0.027    c0.151,1.342,0.433,2.643,0.833,3.893L16.078,50.791c-0.405,0.405-0.405,1.061,0,1.466c0.202,0.203,0.468,0.304,0.733,0.304    s0.53-0.101,0.733-0.304l10.232-10.232c0.285,0.633,0.602,1.249,0.948,1.845c0.031,0.071,0.072,0.138,0.118,0.2    c2.569,4.314,6.693,7.598,11.594,9.073l-7.3,7.3c-0.404,0.405-0.404,1.061,0,1.466c0.203,0.202,0.468,0.303,0.733,0.303    s0.53-0.101,0.733-0.303l8.206-8.206c1.125,0.194,2.28,0.297,3.458,0.297c7.382,0,13.853-3.968,17.396-9.883    c0.052-0.067,0.095-0.14,0.129-0.218c1.361-2.339,2.267-4.972,2.598-7.78c0.001-0.009,0.002-0.018,0.003-0.027    c0.09-0.773,0.138-1.559,0.138-2.356C66.529,28.472,64.511,23.671,61.21,20.065z M59.281,21.04l-0.917,7.885l-2.229,0.5    l-3.61,0.811l-5.204-3.781v-5.61l5.624-4.031C55.35,17.767,57.504,19.218,59.281,21.04z M51.038,31.746l-1.83,5.633h-5.923    l-1.831-5.634l4.792-3.481L51.038,31.746z M46.265,15.544c1.448,0,2.857,0.171,4.208,0.492l-4.251,3.047l-4.739-2.9    C43.007,15.767,44.61,15.544,46.265,15.544z M38.967,17.074l6.243,3.82v5.562l-3.671,2.667l-1.533,1.114l-5.871-1.318l-1.206-7.54    C34.615,19.559,36.666,18.085,38.967,17.074z M31.181,23.576l0.935,5.843l-4.039,4.074C28.125,29.826,29.262,26.417,31.181,23.576    z M28.25,36.262l5.305-5.351l5.878,1.32l1.306,4.021l0.654,2.013l-3.685,5.671l-7.366-1.414    C29.287,40.618,28.564,38.505,28.25,36.262z M31.945,44.94l5.592,1.073l2.848,4.936C37.019,49.797,34.097,47.685,31.945,44.94z     M46.265,51.926c-1.048,0-2.076-0.09-3.076-0.261l-3.777-6.547l3.682-5.666h6.342l3.682,5.666l-3.776,6.547    C48.341,51.835,47.314,51.926,46.265,51.926z M52.147,50.95l2.846-4.934l5.57-1.046C58.413,47.7,55.499,49.801,52.147,50.95z     M62.168,42.56l-7.344,1.379l-3.687-5.674l1.96-6.034l4.66-1.046l1.212-0.272l5.298,5.44C63.945,38.576,63.22,40.671,62.168,42.56    z M60.394,29.405l0.718-6.171c2.077,2.928,3.309,6.493,3.342,10.34L60.394,29.405z"/>
		<path fill="#FAC25A" d="M27.743,50.791L13.775,64.76c-0.405,0.405-0.405,1.061,0,1.466c0.203,0.202,0.468,0.303,0.733,0.303    s0.53-0.101,0.733-0.303l13.969-13.969c0.404-0.405,0.404-1.061,0-1.466C28.804,50.387,28.148,50.387,27.743,50.791z"/>
		<path fill="#FAC25A" d="M30.689,63.318c-0.272,0-0.54,0.111-0.732,0.304c-0.193,0.193-0.304,0.46-0.304,0.733    c0,0.272,0.111,0.539,0.304,0.732c0.193,0.194,0.46,0.304,0.732,0.304c0.273,0,0.54-0.111,0.733-0.304    c0.193-0.193,0.303-0.459,0.303-0.732c0-0.274-0.11-0.541-0.303-0.733C31.229,63.429,30.962,63.318,30.689,63.318z"/>
	</g>
</g>
</svg>