<svg xmlns="http://www.w3.org/2000/svg" xmlns:xlink="http://www.w3.org/1999/xlink" version="1.1" x="0px" y="0px" viewBox="0 0 80 80" enable-background="new 0 0 80 80" xml:space="preserve">
<g id="Layer_1">
</g>
<g id="Layer_2">
</g>
<g id="Layer_3">
</g>
<g id="Layer_4">
	<path fill="#FAC25A" d="M63.267,60.175c-0.001,0-0.003,0-0.004,0h-0.046c1.919-1.483,3.07-3.75,3.134-6.175   c-0.005-3.483-2.196-6.589-5.476-7.761h-0.013l-8.8-3l3.236-16.618h1.17c2.841-0.003,5.144-2.305,5.147-5.147v-4.735   c0.001-1.705-1.38-3.089-3.086-3.09s-3.089,1.38-3.09,3.086c0,0.001,0,0.003,0,0.004v3.705h-5.145   c-1.704-0.001-3.087,1.379-3.089,3.083c-0.001,1.228,0.726,2.339,1.851,2.831l-2.89,14.872l-14.658-4.99   c-0.863-0.306-1.755-0.522-2.662-0.644l-1.8-6.917h3.375c2.107,0.005,3.819-1.7,3.823-3.807c0.004-1.87-1.348-3.468-3.193-3.772   c-12.55-2.068-11.892-2.034-12.6-2.034c-2.655,0.002-4.805,2.156-4.802,4.811c0.002,2.654,2.156,4.805,4.81,4.802h2.185   l1.969,7.542c-6.977,2.443-10.652,10.078-8.209,17.055c0.999,2.854,2.936,5.286,5.494,6.899h-3.159   c-1.705-0.001-3.089,1.38-3.09,3.086c-0.001,1.705,1.38,3.089,3.086,3.09c0.001,0,0.003,0,0.004,0h46.524   c1.705,0.001,3.089-1.38,3.09-3.086C66.354,61.56,64.972,60.176,63.267,60.175z M50.291,22.507l0.002-0.004h6.176   c0.568,0,1.029-0.461,1.029-1.029v-4.735c0-0.569,0.461-1.03,1.029-1.03c0.569,0,1.029,0.461,1.029,1.03v4.735   c-0.002,1.705-1.383,3.086-3.088,3.088h-6.133c-0.033,0-0.066,0-0.1,0c-0.567-0.024-1.007-0.504-0.983-1.071   C49.277,22.937,49.736,22.501,50.291,22.507z M51.101,26.62h2.1l-3.105,15.949L48.132,41.9L51.101,26.62z M18.455,26.62   c-1.519,0.002-2.752-1.227-2.754-2.746s1.227-2.752,2.746-2.754c0.421,0-0.093-0.04,12.261,2.005   c0.957,0.16,1.603,1.065,1.444,2.022c-0.141,0.847-0.874,1.468-1.733,1.468L18.455,26.62z M26.686,35.478   c-0.7,0.018-1.397,0.091-2.085,0.217l-1.831-7.016h2.146L26.686,35.478z M15.709,48.851c0-6.254,5.071-11.323,11.325-11.323   c1.291,0,2.573,0.221,3.789,0.653h0.014l29.354,9.994c2.457,0.882,4.097,3.209,4.1,5.819c0,3.231-3.236,6.071-6.79,6.073   l-31.937,0.009C19.929,59.336,15.714,54.535,15.709,48.851z M63.262,64.291H16.738c-0.569,0-1.029-0.461-1.029-1.03   c0-0.568,0.461-1.029,1.029-1.029h46.524c0.569,0,1.03,0.461,1.03,1.029C64.292,63.83,63.831,64.291,63.262,64.291z"/>
</g>
</svg>