<svg xmlns="http://www.w3.org/2000/svg" xmlns:xlink="http://www.w3.org/1999/xlink" version="1.1" baseProfile="tiny" x="0px" y="0px" viewBox="0 0 590 127.02" overflow="visible" xml:space="preserve">
	 <style>
.ball_{
	 -webkit-animation: bounce 3s linear infinite;
    animation: bounce 3s linear infinite;
}


	 @keyframes bounce {
  0%,
  10%,
  25%,
  40%,
  50% {
    transform: translateY(0);
  }
  20% {
    transform: translateY(-30%);
  }
  30% {
    transform: translateY(-15%);
  }
}

	 </style>
<g id="Layer_4">
	<g>
		<path fill="#FFFFFF" d="M83.233,89.279c-0.219-2.111-0.4-4.986-0.546-8.625c-0.145-3.712-0.51-6.805-1.092-9.281    c-1.383-6.332-5.022-10.627-10.918-12.883v-0.328c8.516-3.857,12.774-10.189,12.774-18.997c0-7.57-2.802-13.32-8.406-17.251    c-5.533-4.003-12.557-6.004-21.073-6.004H15.213v78.064h22.819V66.788h10.591c3.202,0,5.604,0.728,7.205,2.184    c1.602,1.455,2.766,3.748,3.494,6.878c0.437,1.82,0.765,4.222,0.983,7.206c0.218,2.984,0.437,5.459,0.655,7.424    c0.218,1.892,0.655,3.057,1.31,3.494h22.491v-1.201C83.961,92.555,83.451,91.39,83.233,89.279z M50.26,50.52H38.032V33.815h12.556    c3.203,0,5.641,0.764,7.315,2.293c1.674,1.456,2.511,3.494,2.511,6.114C60.414,47.754,57.029,50.52,50.26,50.52z"/>
		<path fill="#FFFFFF" d="M137.117,43.97c-5.459-5.023-12.302-7.534-20.527-7.534c-8.734,0-15.867,2.803-21.399,8.407    c-5.532,5.605-8.297,12.665-8.297,21.181c0,8.589,2.802,15.649,8.406,21.182c5.678,5.531,13.029,8.297,22.055,8.297    c6.987,0,12.919-1.565,17.796-4.695c5.823-3.712,9.353-8.188,10.591-13.429h-19.98c-1.529,2.766-4.113,4.149-7.752,4.149    c-5.968,0-9.608-3.457-10.918-10.372h39.742C147.052,59.219,143.813,50.157,137.117,43.97z M107.092,60.238    c1.164-6.624,4.476-9.936,9.935-9.936c2.475,0,4.513,0.874,6.115,2.62c1.673,1.748,2.729,4.186,3.166,7.316H107.092z"/>
		<path fill="#FFFFFF" d="M189.326,36.545c-7.278,0-13.065,2.766-17.36,8.298h-0.327v-6.551h-19.653v74.134h20.635V88.734h0.328    c3.858,4.731,9.025,7.096,15.504,7.096c7.424,0,13.356-2.693,17.796-8.079c4.44-5.386,6.66-12.629,6.66-21.727    c0-8.37-2.11-15.358-6.332-20.963C202.355,39.384,196.605,36.545,189.326,36.545z M189.435,77.051    c-1.674,2.402-4.039,3.603-7.096,3.603c-3.13,0-5.678-1.273-7.643-3.821c-1.893-2.548-2.839-5.86-2.839-9.935    c0-4.004,0.946-7.316,2.839-9.936c1.965-2.62,4.513-3.931,7.643-3.931c3.057,0,5.422,1.238,7.096,3.713    c1.675,2.474,2.511,5.859,2.511,10.154C191.946,71.192,191.11,74.576,189.435,77.051z"/>
		<path fill="#FFFFFF" d="M246.37,36.654c-9.172,0-16.559,2.802-22.164,8.407c-5.605,5.531-8.407,12.592-8.407,21.181    c0,8.589,2.802,15.649,8.407,21.181c5.605,5.532,12.992,8.298,22.164,8.298c9.171,0,16.522-2.766,22.054-8.298    c5.532-5.532,8.298-12.592,8.298-21.181c0-8.589-2.766-15.65-8.298-21.181C262.892,39.456,255.541,36.654,246.37,36.654z     M253.248,77.706c-1.601,2.839-3.967,4.258-7.097,4.258c-3.057,0-5.386-1.383-6.987-4.149c-1.602-2.839-2.402-6.696-2.402-11.573    c0-4.877,0.8-8.698,2.402-11.464c1.601-2.839,3.93-4.258,6.987-4.258c3.13,0,5.496,1.419,7.097,4.258    c1.674,2.838,2.511,6.66,2.511,11.464C255.759,71.046,254.922,74.868,253.248,77.706z"/>
		<path fill="#FFFFFF" d="M301.832,46.699h-0.328v-8.407h-19.652v55.682h20.635V71.155c0-6.259,1.674-10.736,5.022-13.429    c3.349-2.693,8.079-3.53,14.194-2.511h0.436V37.637c-0.727-0.364-1.856-0.546-3.384-0.546    C311.549,37.091,305.908,40.293,301.832,46.699z"/>
		<path fill="#FFFFFF" d="M352.582,20.277h-20.198v18.015h-7.206v12.446h7.206v27.186c0,6.405,1.637,10.882,4.913,13.43    c3.276,2.474,8.443,3.712,15.504,3.712c3.129,0,6.514-0.437,10.153-1.31V78.579c-2.183,0.146-4.039,0.182-5.568,0.11    c-1.528-0.073-2.729-0.546-3.603-1.42c-0.8-0.873-1.201-2.183-1.201-3.93V50.738h10.591V38.292h-10.591V20.277z"/>
		<path fill="#FFFFFF" d="M422.773,84.803V56.962c0-7.57-2.875-13.138-8.625-16.705c-4.003-2.475-10.081-3.712-18.233-3.712    c-8.371,0-14.812,1.892-19.325,5.677s-6.879,8.589-7.097,14.412h19.544c0.582-4.44,3.02-6.66,7.315-6.66    c3.93,0,5.896,1.783,5.896,5.35c0,1.747-1.056,3.057-3.167,3.93c-2.038,0.874-5.968,1.638-11.791,2.293    c-6.187,0.728-11.101,2.366-14.74,4.913c-3.639,2.475-5.459,6.551-5.459,12.229c0,5.313,1.711,9.426,5.132,12.337    c3.421,2.911,7.897,4.367,13.429,4.367c7.57,0,13.175-2.511,16.814-7.533h0.218c0.364,2.62,0.983,4.658,1.856,6.114h20.308V93.1    C423.465,92.227,422.773,89.461,422.773,84.803z M402.793,73.776c0,3.129-0.909,5.495-2.729,7.096    c-1.82,1.529-4.04,2.293-6.66,2.293c-1.82,0-3.348-0.437-4.586-1.31c-1.237-0.946-1.856-2.293-1.856-4.04    c0-1.674,0.582-2.984,1.747-3.93c1.164-0.947,3.203-1.747,6.114-2.402c3.203-0.728,5.86-1.602,7.97-2.621V73.776z"/>
		<path fill="#FFFFFF" d="M467.165,44.406h-0.327c-3.421-5.241-8.698-7.861-15.831-7.861c-6.697,0-12.156,2.729-16.377,8.188    c-4.222,5.386-6.333,12.119-6.333,20.199c0,8.371,2.256,14.849,6.769,19.434c4.586,4.585,10.227,6.878,16.923,6.878    c5.678,0,10.373-2.11,14.084-6.332h0.437v5.022c0,6.478-2.984,9.717-8.953,9.717c-2.256,0-4.112-0.473-5.568-1.419    c-1.383-0.873-2.292-1.965-2.729-3.276h-19.871c0.946,6.042,3.931,10.627,8.953,13.757c5.022,3.13,11.537,4.695,19.543,4.695    c9.026,0,15.94-2.038,20.745-6.114c5.459-4.586,8.188-11.246,8.188-19.98V38.292h-19.653V44.406z M464.763,73.339    c-1.673,2.329-3.966,3.493-6.878,3.493c-2.838,0-5.131-1.164-6.878-3.493c-1.747-2.402-2.621-5.496-2.621-9.281    c0-3.785,0.837-6.805,2.512-9.062c1.746-2.329,4.075-3.493,6.987-3.493s5.205,1.2,6.878,3.602c1.747,2.33,2.621,5.314,2.621,8.953    C467.384,67.843,466.51,70.937,464.763,73.339z"/>
		<path fill="#FFFFFF" d="M542.174,43.97c-5.459-5.023-12.301-7.534-20.526-7.534c-8.735,0-15.868,2.803-21.4,8.407    c-5.532,5.605-8.297,12.665-8.297,21.181c0,8.589,2.802,15.649,8.406,21.182c5.678,5.531,13.03,8.297,22.055,8.297    c6.988,0,12.92-1.565,17.796-4.695c5.824-3.712,9.353-8.188,10.591-13.429h-19.98c-1.529,2.766-4.113,4.149-7.752,4.149    c-5.968,0-9.608-3.457-10.918-10.372h39.742C552.109,59.219,548.87,50.157,542.174,43.97z M512.148,60.238    c1.165-6.624,4.476-9.936,9.935-9.936c2.475,0,4.513,0.874,6.115,2.62c1.674,1.748,2.729,4.186,3.166,7.316H512.148z"/>
	</g>
	<path class="ball_" fill="#F5B335" d="M578.644,83.079c0,6.813-5.523,12.336-12.336,12.336c-6.814,0-12.337-5.523-12.337-12.336   c0-6.813,5.523-12.337,12.337-12.337C573.121,70.742,578.644,76.266,578.644,83.079"/>
</g>
</svg>