<svg xmlns="http://www.w3.org/2000/svg" xmlns:xlink="http://www.w3.org/1999/xlink" version="1.1" id="Layer_1" x="0px" y="0px" viewBox="0 0 80 80" style="enable-background:new 0 0 80 80;" xml:space="preserve">
<style type="text/css">
	.st0{fill:#FAC25A;}
</style>
<g>
	<path class="st0" d="M21,22.7c12.7,0,25.3,0,38,0c0-0.5,0-0.9,0-1.4c0-0.9,0-1.8,0-2.8c0-0.7,0.3-1,1.1-1c3.1,0.1,5.7,2.6,5.8,5.7   c0,0.1,0,0.3,0,0.4c0,10.9,0,21.8,0,32.8c0,2.9-1.8,5.2-4.5,5.8c-0.5,0.1-1,0.2-1.5,0.2c-13.2,0-26.4,0-39.7,0   c-3.5,0-6.1-2.5-6.1-6.1c0-10.9,0-21.8,0-32.7c0-3.4,2.5-6.1,5.8-6.2c0.8,0,1.1,0.3,1.1,1.1C21,20,21,21.3,21,22.7z M21,24.5   c0,0.3,0,0.5,0,0.7c0,8.6,0,17.2,0,25.7c0,0.9-0.2,1.1-1.1,1.2c-2.4,0.1-4.2,2.1-4.1,4.6c0.1,2.3,1.9,4,4.3,4c13.3,0,26.6,0,39.8,0   c2.4,0,4.2-1.7,4.2-4c0.1-2.5-1.6-4.4-4-4.6c-1-0.1-1.2-0.3-1.2-1.3c0-8.5,0-17.1,0-25.6c0-0.2,0-0.4,0-0.7   C46.3,24.5,33.7,24.5,21,24.5z M19.2,19.4c-0.1,0-0.2,0-0.3,0.1c-1.9,0.5-3.1,2.2-3.1,4.2c0,9.4,0,18.7,0,28.1c0,0.1,0,0.2,0,0.4   c1-0.9,2.1-1.5,3.4-1.7C19.2,40.1,19.2,29.7,19.2,19.4z M64.2,52.2c0-0.3,0-0.4,0-0.6c0-9.3,0-18.6,0-27.8c0-0.1,0-0.3,0-0.4   c-0.1-1.9-1.6-3.7-3.4-3.9c0,10.3,0,20.7,0,31C62.1,50.6,63.2,51.2,64.2,52.2z"/>
	<path class="st0" d="M55.5,53.8c0-5.5,0-11,0-16.4c-3.3-0.7-5.3-2.6-6-6c-1.4,0-2.9,0-4.4,0c0,0.2,0,0.4,0,0.6c0,2,0,4,0,6   c0,0.7-0.3,1.1-0.8,1.1c-0.6,0-0.9-0.4-0.9-1.1c0-2.2,0-4.4,0-6.6c-3.7,0-7.4,0-11.2,0c0,0.2,0,0.4,0,0.6c0,1.6,0,3.3,0,4.9   c0,1.2-0.2,1.4-1.4,1.4c-1.9,0-3.8,0-5.7,0c-0.2,0-0.4,0-0.6,0c0,2.3,0,4.6,0,6.9c0.2,0,0.4,0,0.6,0c2.1,0,4.1,0,6.2,0   c0.6,0,1,0.3,1,0.8c0.1,0.6-0.3,1-1,1c-2,0-4.1,0-6.1,0c-0.2,0-0.4,0-0.6,0c0,2.3,0,4.6,0,6.9c3.4,0,6.8,0,10.3,0   c0-0.9,0-1.7,0-2.6c0-0.3,0-0.6,0-0.9c0-0.5,0.4-0.9,0.9-0.9c0.5,0,0.8,0.3,0.9,0.9c0,1,0,2,0,3c0,0.1,0,0.2,0,0.4   c2.3,0,4.6,0,6.9,0c0-3.4,0-6.8,0-10.3c-2.3,0-4.5,0-6.9,0c0,0.9,0,1.8,0,2.7c0,0.3,0,0.5,0,0.8c-0.1,0.5-0.4,0.8-0.9,0.8   c-0.5,0-0.8-0.3-0.8-0.8c0-1.5,0-3,0-4.5c0-0.5,0.4-0.8,1-0.8c1.1,0,2.1,0,3.2,0c3.9,0,7.8,0,11.7,0c0.1,0,0.3,0,0.4,0   c0.6,0,1,0.4,0.9,0.9c0,0.5-0.4,0.8-0.9,0.8c-1.1,0-2.2,0-3.2,0c-0.9,0-1.8,0-2.7,0c0,0.2,0,0.4,0,0.6c0,3.4,0,6.9,0,10.3   c0,0.9-0.3,1.2-1.2,1.2c-6.7,0-13.4,0-20.1,0c-0.9,0-1.2-0.3-1.2-1.2c0-5.6,0-11.1,0-16.7c0-0.9,0.3-1.1,1.2-1.1c2.2,0,4.3,0,6.6,0   c0-0.2,0-0.4,0-0.6c0-1.7,0-3.5,0-5.2c0-0.8,0.3-1.1,1.1-1.1c8.2,0,16.4,0,24.6,0c0.8,0,1.1,0.3,1.1,1.1c0,7.9,0,15.8,0,23.8   c0,0.8-0.3,1.1-1.1,1.1c-2.4,0-4.9,0-7.3,0c-0.7,0-1.1-0.3-1.1-0.9c0-0.5,0.4-0.9,1.1-0.9c2,0,4,0,6,0   C55.1,53.8,55.3,53.8,55.5,53.8z M51.3,31.4c0.3,2.1,2.2,4,4.2,4.2c0-1.4,0-2.8,0-4.2C54.1,31.4,52.7,31.4,51.3,31.4z"/>
</g>
</svg>