<svg xmlns="http://www.w3.org/2000/svg" xmlns:xlink="http://www.w3.org/1999/xlink" version="1.1" x="0px" y="0px" viewBox="0 0 80 80" enable-background="new 0 0 80 80" xml:space="preserve">
<g id="Layer_1">
</g>
<g id="Layer_2">
</g>
<g id="Layer_3">
</g>
<g id="Layer_4">
	<g>
		<path fill="#FAC25A" d="M33.604,25.974c0.212,0,0.426-0.061,0.615-0.187c0.51-0.34,0.648-1.029,0.308-1.539    s-1.029-0.648-1.539-0.308l-0.001,0c-0.51,0.34-0.648,1.029-0.307,1.539C32.893,25.801,33.245,25.974,33.604,25.974z"/>
		<path fill="#FAC25A" d="M64.419,61.755h-3.33v-13.79c0-0.613-0.497-1.11-1.11-1.11h-3.33v-2.411    c1.292-0.458,2.22-1.692,2.22-3.139c0-1.836-1.494-3.33-3.33-3.33h-0.676c1.427-4.001-0.095-8.365-4.108-11.3l-8.277-6.051    c0.799-0.47,1.463-1.166,1.897-2.037c0.183-0.368,0.149-0.806-0.09-1.14c-0.239-0.334-0.642-0.509-1.049-0.455    c-0.664,0.089-1.518-0.4-2.173-1.243c-0.691-0.891-0.988-1.976-0.722-2.64c0.151-0.375,0.086-0.803-0.17-1.116    c-0.256-0.313-0.662-0.462-1.06-0.389c-2.317,0.426-3.999,2.448-3.999,4.806c0,1.792,0.97,3.361,2.413,4.212l-1.112,0.813    c-0.495,0.362-0.603,1.056-0.241,1.551s1.056,0.603,1.551,0.241L40,21.562l9.445,6.906c3.474,2.54,4.614,6.215,3.012,9.507H27.543    c-1.602-3.292-0.462-6.967,3.012-9.507c0.495-0.362,0.603-1.056,0.241-1.551c-0.362-0.495-1.056-0.603-1.551-0.241    c-4.014,2.934-5.536,7.299-4.108,11.3h-0.676c-1.836,0-3.33,1.494-3.33,3.33c0,1.447,0.928,2.681,2.22,3.139v2.411h-3.33    c-0.613,0-1.11,0.497-1.11,1.11v13.791h-3.33c-0.613,0-1.11,0.497-1.11,1.11v4.44c0,0.613,0.497,1.11,1.11,1.11h48.838    c0.613,0,1.11-0.497,1.11-1.11v-4.44C65.529,62.252,65.032,61.755,64.419,61.755z M40.001,19.077c-0.001,0-0.002,0-0.002,0    c-1.47-0.001-2.666-1.197-2.666-2.667c0-0.726,0.292-1.394,0.773-1.88c0.164,0.872,0.573,1.767,1.205,2.58    c0.57,0.735,1.24,1.296,1.948,1.655C40.88,18.967,40.451,19.077,40.001,19.077z M24.461,40.195h2.415c0.001,0,0.002,0,0.003,0    s0.002,0,0.003,0h26.236c0.001,0,0.002,0,0.003,0c0.001,0,0.002,0,0.004,0h2.415c0.612,0,1.11,0.498,1.11,1.11    s-0.498,1.11-1.11,1.11H24.461c-0.612,0-1.11-0.498-1.11-1.11S23.849,40.195,24.461,40.195z M21.131,49.075H46.66    c0.613,0,1.11-0.497,1.11-1.11s-0.497-1.11-1.11-1.11H25.571v-2.22h28.859v3.33c0,0.613,0.497,1.11,1.11,1.11h3.33v12.68h-2.775    v-4.44c0-2.448-1.992-4.44-4.44-4.44c-2.448,0-4.44,1.992-4.44,4.44v4.44H44.44v-4.44c0-2.448-1.992-4.44-4.44-4.44    s-4.44,1.992-4.44,4.44v4.44h-2.775v-4.44c0-2.448-1.992-4.44-4.44-4.44s-4.44,1.992-4.44,4.44v4.44h-2.775V49.075z     M53.875,57.315v4.44h-4.44v-4.44c0-1.224,0.996-2.22,2.22-2.22C52.879,55.095,53.875,56.091,53.875,57.315z M42.22,57.315v4.44    h-4.44v-4.44c0-1.224,0.996-2.22,2.22-2.22S42.22,56.091,42.22,57.315z M30.565,57.315v4.44h-4.44v-4.44    c0-1.224,0.996-2.22,2.22-2.22S30.565,56.091,30.565,57.315z M63.309,66.195H16.691v-2.22h46.618V66.195z"/>
		<path fill="#FAC25A" d="M51.1,49.075c0.613,0,1.11-0.497,1.11-1.11s-0.497-1.11-1.11-1.11h-0.001c-0.613,0-1.11,0.497-1.11,1.11    S50.487,49.075,51.1,49.075z"/>
	</g>
</g>
</svg>