<svg xmlns="http://www.w3.org/2000/svg" xmlns:xlink="http://www.w3.org/1999/xlink" version="1.1" x="0px" y="0px" viewBox="0 0 80 80" enable-background="new 0 0 80 80" xml:space="preserve">
<g id="Layer_1">
</g>
<g id="Layer_2">
</g>
<g id="Layer_3">
</g>
<g id="Layer_4">
	<g>
		<path fill="#FAC25A" d="M39.997,36.356c-1.728,0-3.128,1.401-3.128,3.129c0,1.728,1.401,3.128,3.128,3.128    s3.128-1.401,3.128-3.128C43.122,37.758,41.723,36.36,39.997,36.356z M39.997,40.522v0.005c-0.577,0-1.045-0.468-1.045-1.045    s0.468-1.045,1.045-1.045s1.045,0.468,1.045,1.045C41.04,40.057,40.573,40.522,39.997,40.522z"/>
		<path fill="#FAC25A" d="M72.204,29.461c-0.413-1.475-1.759-2.495-3.291-2.494h-0.005H68.48c-0.314,0-0.627,0.042-0.929,0.128    l-6.925,1.946l-1.51-6.039l1.474-0.386c0.825-0.209,1.529-0.744,1.952-1.482c0.405-0.704,0.508-1.542,0.286-2.323    c-0.502-1.652-2.225-2.609-3.893-2.161l-8.245,2.156c-0.825,0.209-1.529,0.745-1.951,1.484c-0.405,0.704-0.508,1.542-0.286,2.323    c0.405,1.354,1.655,2.277,3.068,2.267c0.277,0,0.553-0.035,0.821-0.106l1.57-0.411l1.534,6.129l-12.336,3.46    c-3.211-1.601-7.113-0.506-9.022,2.532l-10.008,2.81l-1.467-5.867l1.474-0.385c0.824-0.209,1.529-0.744,1.952-1.482    c0.405-0.704,0.508-1.542,0.286-2.323c-0.502-1.65-2.221-2.606-3.888-2.161l-8.245,2.156c-0.825,0.209-1.529,0.745-1.951,1.484    c-0.405,0.704-0.508,1.542-0.286,2.323c0.405,1.354,1.655,2.277,3.068,2.267c0.277,0,0.553-0.035,0.821-0.106l1.57-0.411    l1.489,5.958l-8.74,2.454c-1.816,0.509-2.876,2.394-2.368,4.21c0.413,1.476,1.759,2.495,3.291,2.494h0.428    c0.314,0.001,0.627-0.042,0.929-0.128l18.464-5.184l-3.425,9.29v1.23h-2.09v8.343h29.201v-8.343h-2.09v-1.23l-5.118-13.914    l22.449-6.301C71.652,33.162,72.712,31.277,72.204,29.461z M51.815,22.757c-0.57,0.165-1.168-0.15-1.355-0.713    c-0.069-0.243-0.036-0.504,0.091-0.723c0.146-0.25,0.387-0.431,0.669-0.5l8.245-2.156c0.098-0.026,0.2-0.04,0.302-0.04    c0.479-0.012,0.909,0.294,1.054,0.751c0.069,0.243,0.036,0.504-0.091,0.723c-0.146,0.25-0.388,0.43-0.669,0.499L51.815,22.757z     M58.612,29.609l-1.161,0.325l-1.524-6.094l1.161-0.304L58.612,29.609z M15.319,33.184c-0.57,0.165-1.168-0.15-1.355-0.713    c-0.067-0.244-0.033-0.505,0.095-0.723c0.146-0.25,0.387-0.431,0.669-0.499l8.245-2.156c0.098-0.026,0.2-0.04,0.302-0.04    c0.479-0.012,0.909,0.294,1.054,0.751c0.069,0.243,0.036,0.504-0.091,0.723c-0.146,0.25-0.388,0.43-0.669,0.499L15.319,33.184z     M22.073,39.862l-1.161,0.324l-1.481-5.922l1.161-0.304L22.073,39.862z M11.873,47.773c-0.116,0.032-0.236,0.049-0.357,0.049    h-0.43c-0.734,0.001-1.331-0.593-1.332-1.328c-0.001-0.598,0.397-1.123,0.973-1.283l22.259-6.247l-1.184,3.215L11.873,47.773z     M50.428,54.266v0.856h-2.09v2.09h4.171v4.171H27.484v-4.171h18.77v-2.09H29.57v-0.856l5.794-15.725    c0.943-2.559,3.783-3.869,6.342-2.926c1.356,0.5,2.426,1.569,2.926,2.926L50.428,54.266z M69.268,31.663l-0.002-0.001    l-22.608,6.346l-0.07-0.189c-0.318-0.843-0.796-1.616-1.407-2.277l22.942-6.44c0.116-0.032,0.236-0.049,0.357-0.049h0.428    c0.734-0.002,1.331,0.592,1.333,1.326C70.242,30.977,69.844,31.502,69.268,31.663z"/>
	</g>
</g>
</svg>