<svg xmlns="http://www.w3.org/2000/svg" xmlns:xlink="http://www.w3.org/1999/xlink" version="1.1" x="0px" y="0px" viewBox="0 0 80 80" enable-background="new 0 0 80 80" xml:space="preserve">
<g id="Layer_1">
</g>
<g id="Layer_2">
</g>
<g id="Layer_3">
</g>
<g id="Layer_4">
	<g>
		<path fill="#FAC25A" d="M10.815,29.427c0,0,0.001,0,0.001,0h24.406l-0.286,0.482c-0.621,1.035-0.949,2.219-0.949,3.426v15.229    c0,0.556,0.45,1.008,1.007,1.008c0.556,0,1.008-0.45,1.008-1.007c0,0,0-0.001,0-0.001v-4.029h11.076v4.029    c0,0.556,0.45,1.008,1.007,1.008c0.556,0,1.008-0.45,1.008-1.007c0,0,0-0.001,0-0.001v-15.23c0.001-0.84,0.23-1.664,0.662-2.385    l0.912-1.519h18.572c0.556,0,1.008-0.45,1.008-1.007s-0.45-1.008-1.007-1.008c0,0-0.001,0-0.001,0v-0.004h-5.037V15.775    c-0.029-1.941-1.621-3.495-3.563-3.476c-1.255-0.004-2.421,0.647-3.076,1.717l-6.455,10.761v-9.002    c-0.029-1.941-1.621-3.495-3.563-3.476c-1.255-0.004-2.421,0.647-3.076,1.717l-8.037,13.397H10.816    c-0.556,0-1.008,0.45-1.008,1.006C9.808,28.975,10.259,29.427,10.815,29.427z M59.29,15.058c0.29-0.465,0.801-0.746,1.349-0.74    c0.828-0.021,1.519,0.629,1.548,1.458l-0.005,11.637H51.875L59.29,15.058z M46.196,15.058c0.29-0.465,0.801-0.746,1.349-0.74    c0.826-0.018,1.514,0.631,1.543,1.457v11.638H38.781L46.196,15.058z M35.998,33.334c0.001-0.84,0.23-1.664,0.662-2.385    l0.912-1.519h10.745l-0.29,0.479c-0.621,1.035-0.949,2.219-0.949,3.426v2.136h-11.08V33.334z M35.998,37.482h11.08v5.04h-11.08    V37.482z"/>
		<path fill="#FAC25A" d="M68.533,52.855c-0.001,0.001-0.003,0.002-0.004,0.003c-1.56,1.5-4.026,1.5-5.586,0    c-2.345-2.253-6.05-2.253-8.394,0c-1.561,1.498-4.025,1.498-5.586,0c-2.345-2.252-6.05-2.252-8.394,0c-1.56,1.5-4.026,1.5-5.586,0    c-2.345-2.252-6.05-2.252-8.394,0c-1.561,1.498-4.025,1.498-5.586,0c-2.345-2.252-6.05-2.252-8.394,0l-2.495,2.428    c-0.387,0.401-0.375,1.039,0.026,1.426c0.383,0.37,0.989,0.378,1.381,0.018l2.497-2.425c1.56-1.5,4.026-1.5,5.586,0    c2.346,2.25,6.049,2.25,8.394,0c1.56-1.5,4.025-1.5,5.585,0c2.345,2.251,6.049,2.251,8.394,0c1.56-1.5,4.025-1.5,5.585,0    c2.346,2.25,6.049,2.25,8.394,0c1.56-1.5,4.025-1.5,5.585,0c2.345,2.251,6.049,2.251,8.394,0c0.4-0.387,0.411-1.025,0.025-1.426    C69.572,52.478,68.933,52.468,68.533,52.855z"/>
		<path fill="#FAC25A" d="M68.533,43.087c-0.002,0.002-0.003,0.003-0.005,0.005c-1.56,1.5-4.026,1.5-5.586,0    c-2.345-2.252-6.049-2.252-8.394,0c-0.679,0.656-1.567,1.051-2.509,1.114c-0.555,0.038-0.974,0.519-0.936,1.074    c0.047,0.551,0.523,0.965,1.075,0.936c1.418-0.097,2.757-0.692,3.778-1.682c1.56-1.5,4.025-1.5,5.585,0    c2.345,2.252,6.049,2.252,8.394,0c0.4-0.387,0.411-1.025,0.024-1.426c0,0,0,0,0,0C69.571,42.708,68.933,42.699,68.533,43.087z"/>
		<polygon fill="#FAC25A" points="30.99,41.4 30.991,41.4 30.994,41.4   "/>
		<path fill="#FAC25A" d="M11.417,47.064c0.036-0.03,0.069-0.063,0.101-0.098l2.494-2.431c1.561-1.497,4.025-1.497,5.586,0    c2.346,2.249,6.048,2.249,8.394,0c0.784-0.757,1.842-1.161,2.931-1.121c0.556,0.034,1.034-0.389,1.068-0.945    c0.034-0.556-0.389-1.034-0.945-1.068C31.028,41.4,31.01,41.4,30.991,41.4c-1.635-0.057-3.223,0.552-4.399,1.689    c-1.56,1.5-4.026,1.5-5.586,0c-2.346-2.249-6.048-2.249-8.394,0l-2.501,2.436c-0.425,0.361-0.477,0.998-0.116,1.422    C10.355,47.373,10.992,47.425,11.417,47.064z"/>
		<path fill="#FAC25A" d="M68.533,63.54c-0.001,0.001-0.003,0.002-0.004,0.004c-1.56,1.5-4.026,1.5-5.586,0    c-2.345-2.252-6.049-2.252-8.394,0c-1.561,1.498-4.025,1.498-5.586,0c-2.346-2.249-6.048-2.249-8.394,0    c-1.56,1.5-4.026,1.5-5.586,0c-2.345-2.252-6.049-2.252-8.394,0c-1.561,1.498-4.025,1.498-5.586,0    c-2.346-2.249-6.048-2.249-8.394,0l-2.495,2.429c-0.398,0.388-0.407,1.026-0.019,1.424c0.388,0.399,1.025,0.408,1.424,0.02    l2.497-2.429c1.561-1.498,4.025-1.498,5.586,0c2.346,2.25,6.049,2.25,8.394,0c1.56-1.5,4.025-1.5,5.585,0    c2.345,2.251,6.049,2.251,8.394,0c1.56-1.5,4.025-1.5,5.585,0c2.346,2.25,6.049,2.25,8.394,0c1.56-1.5,4.025-1.5,5.585,0    c2.346,2.25,6.049,2.25,8.394,0c0.4-0.386,0.411-1.023,0.027-1.424C69.572,63.163,68.933,63.152,68.533,63.54z"/>
	</g>
</g>
</svg>