<svg xmlns="http://www.w3.org/2000/svg" xmlns:xlink="http://www.w3.org/1999/xlink" version="1.1" x="0px" y="0px" viewBox="0 0 80 80" enable-background="new 0 0 80 80" xml:space="preserve">
<g id="Layer_1">
</g>
<g id="Layer_2">
</g>
<g id="Layer_3">
</g>
<g id="Layer_4">
	<g>
		<path fill="#FAC25A" d="M62.493,22.606l-13.188-3.968c-0.564-0.169-1.165-0.087-1.665,0.198c-0.5-0.286-1.103-0.367-1.666-0.199h0    l-13.188,3.97c-0.156,0.047-0.291,0.126-0.427,0.204c-0.136-0.078-0.272-0.157-0.428-0.205l-13.188-3.968    c-0.644-0.193-1.347-0.075-1.88,0.321c-0.499,0.371-0.785,0.93-0.785,1.534v35.045c0,0.853,0.574,1.599,1.428,1.856l13.188,3.969    h0.001c0.202,0.061,0.41,0.09,0.617,0.09c0.371,0,0.726-0.118,1.047-0.302c0.321,0.184,0.676,0.302,1.047,0.302    c0.207,0,0.416-0.029,0.618-0.09l13.188-3.97c0.156-0.047,0.291-0.126,0.427-0.204c0.136,0.078,0.272,0.157,0.428,0.205    l13.188,3.969h0.001c0.202,0.061,0.41,0.09,0.617,0.09c0.452,0,0.897-0.142,1.263-0.414c0.499-0.37,0.784-0.929,0.784-1.532    V24.462C63.921,23.609,63.347,22.863,62.493,22.606z M31.27,59.447l-13.191-3.909l-0.024-34.972    c0.008-0.009,0.05-0.035,0.113-0.014l13.192,3.909v34.981C31.34,59.452,31.312,59.459,31.27,59.447z M33.449,59.447    c-0.044,0.014-0.079,0.004-0.09,0.021l0.004-34.947l13.188-3.969h0c0.043-0.014,0.078-0.005,0.088-0.021l-0.004,34.947    L33.449,59.447z M61.831,59.447L48.64,55.538V20.554c0.02-0.009,0.047-0.015,0.088-0.001l13.192,3.909l0.024,34.971    C61.937,59.44,61.893,59.464,61.831,59.447z"/>
		<path fill="#FAC25A" d="M28.288,30.141l-7.476-2.25c-0.527-0.156-1.086,0.142-1.246,0.67c-0.159,0.528,0.141,1.087,0.669,1.246    l7.476,2.25c0.096,0.028,0.193,0.042,0.289,0.042c0.43,0,0.827-0.279,0.957-0.712C29.117,30.859,28.817,30.3,28.288,30.141z"/>
		<path fill="#FAC25A" d="M28.288,38.959l-7.476-2.25c-0.527-0.155-1.086,0.141-1.246,0.67c-0.159,0.528,0.141,1.087,0.669,1.246    l7.476,2.25c0.096,0.028,0.193,0.042,0.289,0.042c0.43,0,0.827-0.279,0.957-0.712C29.117,39.677,28.817,39.118,28.288,38.959z"/>
		<path fill="#FAC25A" d="M28.288,47.777l-7.476-2.249c-0.527-0.155-1.086,0.142-1.246,0.67c-0.159,0.529,0.141,1.087,0.669,1.246    l7.476,2.249c0.096,0.028,0.193,0.042,0.289,0.042c0.43,0,0.827-0.279,0.957-0.712C29.117,48.494,28.817,47.937,28.288,47.777z"/>
		<path fill="#FAC25A" d="M59.306,30.484l-7.476-2.25c-0.529-0.156-1.086,0.142-1.246,0.67s0.141,1.087,0.669,1.246l7.476,2.25    c0.096,0.028,0.193,0.042,0.289,0.042c0.43,0,0.827-0.279,0.957-0.712C60.135,31.202,59.835,30.644,59.306,30.484z"/>
		<path fill="#FAC25A" d="M59.306,39.303l-7.476-2.25c-0.529-0.156-1.086,0.142-1.246,0.67s0.141,1.087,0.669,1.246l7.476,2.25    c0.096,0.028,0.193,0.042,0.289,0.042c0.43,0,0.827-0.279,0.957-0.712C60.135,40.021,59.835,39.462,59.306,39.303z"/>
		<path fill="#FAC25A" d="M59.306,48.121l-7.476-2.249c-0.529-0.156-1.086,0.142-1.246,0.67c-0.159,0.529,0.141,1.087,0.669,1.246    l7.476,2.249c0.096,0.028,0.193,0.042,0.289,0.042c0.43,0,0.827-0.279,0.957-0.712C60.135,48.838,59.835,48.28,59.306,48.121z"/>
	</g>
</g>
</svg>