<svg xmlns="http://www.w3.org/2000/svg" xmlns:xlink="http://www.w3.org/1999/xlink" version="1.1" x="0px" y="0px" viewBox="0 0 80 80" enable-background="new 0 0 80 80" xml:space="preserve">
<g id="Layer_1">
</g>
<g id="Layer_2">
</g>
<g id="Layer_3">
</g>
<g id="Layer_4">
	<path fill="#FAC25A" d="M62.07,41.249h-5.527c-0.17-2.188-1.79-3.978-3.904-4.419v-9.237c0-0.514-0.417-0.93-0.93-0.93h-5.733   v-2.306c0-4.507-3.684-8.173-8.213-8.173c-1.037,0-2.03,0.192-2.944,0.543c-0.914-0.35-1.907-0.543-2.944-0.543   c-4.529,0-8.213,3.667-8.213,8.173v2.306H17.93c-0.514,0-0.93,0.417-0.93,0.93v31.812c0,2.433,1.982,4.412,4.419,4.412h37.009   c2.521,0,4.572-2.051,4.572-4.572V42.179C63,41.665,62.583,41.249,62.07,41.249z M22.733,61.956h-1.314   c-1.41,0-2.558-1.145-2.558-2.552V28.523h3.872V61.956z M54.673,41.249h-6.097c0.189-1.499,1.484-2.663,3.048-2.663   C53.189,38.586,54.484,39.75,54.673,41.249z M37.763,18.044c3.503,0,6.352,2.832,6.352,6.313v2.306h-4.027v-2.306   c0-2.522-1.154-4.781-2.963-6.281C37.335,18.055,37.548,18.044,37.763,18.044z M34.82,18.764c2.025,1.056,3.409,3.167,3.409,5.593   v2.306h-6.817v-2.306C31.411,21.931,32.795,19.82,34.82,18.764z M25.524,24.356c0-3.481,2.85-6.313,6.352-6.313   c0.215,0,0.428,0.011,0.638,0.031c-1.81,1.5-2.963,3.759-2.963,6.281v2.306h-4.027V24.356z M41.171,61.956H24.593V28.523h4.957   v4.771c0,0.514,0.417,0.93,0.93,0.93s0.93-0.417,0.93-0.93v-4.771h12.705v4.771c0,0.514,0.417,0.93,0.93,0.93s0.93-0.417,0.93-0.93   v-4.771h4.802v8.274c-2.196,0.379-3.898,2.206-4.072,4.451h-5.498c-0.514,0-0.93,0.417-0.93,0.93v17.066   C40.278,60.259,40.61,61.197,41.171,61.956z M61.139,59.245c0,1.495-1.216,2.711-2.711,2.711H44.85   c-1.495,0-2.711-1.216-2.711-2.711V43.109h4.553v3.677c0,0.514,0.417,0.93,0.93,0.93c0.514,0,0.93-0.417,0.93-0.93v-3.677h6.144   v3.677c0,0.514,0.417,0.93,0.93,0.93c0.514,0,0.93-0.417,0.93-0.93v-3.677h4.582V59.245z"/>
</g>
</svg>