<svg xmlns="http://www.w3.org/2000/svg" xmlns:xlink="http://www.w3.org/1999/xlink" version="1.1" x="0px" y="0px" viewBox="0 0 80 80" enable-background="new 0 0 80 80" xml:space="preserve">
<g id="Layer_1">
</g>
<g id="Layer_2">
</g>
<g id="Layer_3">
</g>
<g id="Layer_4">
	<g>
		<path fill="#FAC25A" d="M56.455,17.168H23.545c-1.371,0-2.485,1.115-2.485,2.485v40.693c0,1.37,1.115,2.485,2.485,2.485h32.911    c1.371,0,2.485-1.115,2.485-2.485V19.653C58.941,18.283,57.826,17.168,56.455,17.168z M56.941,60.347    c0,0.268-0.218,0.485-0.485,0.485H23.545c-0.268,0-0.485-0.218-0.485-0.485V19.653c0-0.268,0.218-0.485,0.485-0.485h32.911    c0.268,0,0.485,0.218,0.485,0.485V60.347z"/>
		<path fill="#FAC25A" d="M32.326,35.613l1.552-1.344v4.844c0,0.553,0.448,1,1,1h10.244c0.552,0,1-0.447,1-1v-4.844l1.552,1.344    c0.189,0.164,0.422,0.244,0.654,0.244c0.28,0,0.559-0.117,0.756-0.346c0.362-0.417,0.316-1.049-0.101-1.41l-8.329-7.212    c-0.376-0.326-0.934-0.326-1.31,0l-8.329,7.212c-0.417,0.361-0.463,0.993-0.101,1.41C31.276,35.93,31.908,35.976,32.326,35.613z     M40,28.969l4.122,3.569v5.576h-8.244v-5.576L40,28.969z"/>
		<path fill="#FAC25A" d="M49.513,46.574H30.487c-0.552,0-1,0.447-1,1s0.448,1,1,1h19.027c0.552,0,1-0.447,1-1    S50.066,46.574,49.513,46.574z"/>
		<path fill="#FAC25A" d="M49.513,52.099H30.487c-0.552,0-1,0.447-1,1s0.448,1,1,1h19.027c0.552,0,1-0.447,1-1    S50.066,52.099,49.513,52.099z"/>
	</g>
</g>
</svg>